<svg width="645" height="525" viewBox="0 0 645 525" fill="none" xmlns="http://www.w3.org/2000/svg">
<path d="M59 141.5V124.5L98 85.5H162V186.5M207.5 85.5V98.5H172V176H192V186.5M182 133V145H237V186.5M207.5 133H253.5V176H270V219L288.5 237.5H350V301L381 332H409L433 308H506M506 308L533.5 280.5H572M506 308V288H441L417 312H374L359 297V109H292M480 117H465V74.5H549.5L557.5 82.5H625.5V448H563.5V506H446M446 506V481.5M446 506H277.5M230 481.5V506H277.5M277.5 506V481.5M356 481.5H338V331.5H304M304 331.5L299.5 335H277.5M304 331.5V261.5H195V249M98.5 189V202.5H223V157H206.5M340 125H327M517.5 98.5H553V117M538 117H525.5V140M525.5 140H519.5M525.5 140H536.5V156.5H432V172H385V312M580 117V129.5H544.5V148M408.5 248H397V191H494.5V171.5H544.5V148M601.5 117V140H549.5M544.5 148H562.5M549.5 156.5H580V180M416 481.5V424H459L493.5 389.5V354M493.5 354H533.5V342.5H548M493.5 354H478V326.5H466.5V315H506V307M526 227V258H560V305H569V412.5H558M508 397L446 459V483M384 373.5H373.5V339L354.5 320H316V296.5M409 273.5V296.5M315 388.5H291L266 363.5H184.5V351.5M183.5 327.5V339H261.5L280 357.5H315M362.5 357.5H338M384 343.5H417L434 326.5H470.5M113 296.5V312H91V327.5M91 351.5L86.5 347H59" stroke="#00FFFF" stroke-width="4"/>
</svg>
