<svg width="92" height="92" viewBox="0 0 92 92" fill="none" xmlns="http://www.w3.org/2000/svg">
<path d="M27.1819 20.909C27.1819 24.3734 24.3735 27.1817 20.9092 27.1817C17.4449 27.1817 14.6365 24.3734 14.6365 20.909C14.6365 17.4447 17.4449 14.6363 20.9092 14.6363C24.3735 14.6363 27.1819 17.4447 27.1819 20.909Z" fill="black"/>
<path fill-rule="evenodd" clip-rule="evenodd" d="M12.5455 0C5.61681 0 0 5.61681 0 12.5455V29.2727C0 36.2014 5.61681 41.8182 12.5455 41.8182H79.4546C86.3834 41.8182 92 36.2014 92 29.2727V12.5455C92 5.61681 86.3834 0 79.4546 0H12.5455ZM8.36364 12.5455C8.36364 10.2359 10.2359 8.36364 12.5455 8.36364H79.4546C81.7642 8.36364 83.6364 10.2359 83.6364 12.5455V29.2727C83.6364 31.5823 81.7642 33.4545 79.4546 33.4545H12.5455C10.2359 33.4545 8.36364 31.5823 8.36364 29.2727V12.5455Z" fill="black"/>
<path d="M20.9092 77.3636C24.3735 77.3636 27.1819 74.5551 27.1819 71.0908C27.1819 67.6266 24.3735 64.8181 20.9092 64.8181C17.4449 64.8181 14.6365 67.6266 14.6365 71.0908C14.6365 74.5551 17.4449 77.3636 20.9092 77.3636Z" fill="black"/>
<path fill-rule="evenodd" clip-rule="evenodd" d="M12.5455 50.1818C5.61681 50.1818 0 55.7984 0 62.7273V79.4545C0 86.3834 5.61681 92 12.5455 92H79.4546C86.3834 92 92 86.3834 92 79.4545V62.7273C92 55.7984 86.3834 50.1818 79.4546 50.1818H12.5455ZM8.36364 62.7273C8.36364 60.4177 10.2359 58.5455 12.5455 58.5455H79.4546C81.7642 58.5455 83.6364 60.4177 83.6364 62.7273V79.4545C83.6364 81.7642 81.7642 83.6364 79.4546 83.6364H12.5455C10.2359 83.6364 8.36364 81.7642 8.36364 79.4545V62.7273Z" fill="black"/>
</svg>
