<svg width="100" height="100" viewBox="0 0 100 100" fill="none" xmlns="http://www.w3.org/2000/svg">
<path d="M96.0003 16.5362C96.0003 20.3364 89.9974 23.656 80.4277 25.9711C70.431 28.1845 60.2146 29.2397 49.9785 29.1161C39.7426 29.2359 29.5266 28.1807 19.5294 25.9711C10.2206 23.6997 4.21777 20.3364 4.21777 16.5362C4.21777 9.59105 24.7927 4 50.283 4C75.7733 4 96.0003 9.59105 96.0003 16.5362Z" stroke="#020202" stroke-width="7" stroke-miterlimit="10"/>
<path d="M96.0003 16.5363V49.9078C96.0003 53.6643 89.9974 57.0277 80.4277 59.2991C70.4345 61.5341 60.2156 62.5896 49.9785 62.444C39.7417 62.586 29.5231 61.5306 19.5294 59.2991C10.2206 57.2024 4.21777 53.8391 4.21777 49.9078V16.5363C4.21777 20.3364 10.2206 23.6998 19.8338 25.9712C29.8311 28.1807 40.0471 29.2359 50.283 29.1161C60.5191 29.2397 70.7355 28.1845 80.7322 25.9712C89.9974 23.6998 96.0003 20.3364 96.0003 16.5363Z" stroke="#020202" stroke-width="7" stroke-miterlimit="10"/>
<path d="M96 49.9077V83.4103C96 87.1668 89.9972 90.5301 80.4274 92.8452C70.4307 95.0586 60.2143 96.1138 49.9783 95.9902C39.7424 96.1099 29.5264 95.0548 19.5291 92.8452C10.0028 90.5301 4 87.1668 4 83.4103V49.9077C4 53.6641 10.0028 57.0275 19.5291 59.2989C29.5228 61.5304 39.7414 62.5858 49.9783 62.4438C60.2153 62.5894 70.4342 61.5339 80.4274 59.2989C89.9972 57.2022 96 53.8389 96 49.9077Z" stroke="#020202" stroke-width="7" stroke-miterlimit="10"/>
<path d="M45.9329 45.8893H54.2846" stroke="#020202" stroke-width="7" stroke-miterlimit="10"/>
<path d="M62.593 45.8893H70.9448" stroke="#020202" stroke-width="7" stroke-miterlimit="10"/>
<path d="M29.2292 45.8893H37.581" stroke="#020202" stroke-width="7" stroke-miterlimit="10"/>
<path d="M45.9329 79.392H54.2846" stroke="#020202" stroke-width="7" stroke-miterlimit="10"/>
<path d="M62.593 79.392H70.9448" stroke="#020202" stroke-width="7" stroke-miterlimit="10"/>
<path d="M29.2292 79.392H37.581" stroke="#020202" stroke-width="7" stroke-miterlimit="10"/>
</svg>
