<svg width="123" height="123" viewBox="0 0 123 123" fill="none" xmlns="http://www.w3.org/2000/svg">
<path fill-rule="evenodd" clip-rule="evenodd" d="M26.7392 0H3H0V3V28.3435H3V3H26.7392V0ZM48.1305 3V0H74.8696V3H48.1305ZM120 28.3435V3H96.2609V0H120H123V3V28.3435H120ZM120 76.4739V49.7348H123V76.4739H120ZM96.2609 120H120V97.8652H123V120V123H120H96.2609V120ZM48.1305 120H74.8696V123H48.1305V120ZM3 97.8652V120H26.7392V123H3H0V120V97.8652H3ZM3 49.7348V76.4739H0V49.7348H3Z" fill="#FF0000"/>
<path fill-rule="evenodd" clip-rule="evenodd" d="M44.9218 32.087H35.087H32.087V35.087V44.9218H35.087V35.087H44.9218V32.087ZM54.5479 35.087V32.087H68.4523V35.087H54.5479ZM87.9131 44.9218V35.087H78.0784V32.087H87.9131H90.9131V35.087V44.9218H87.9131ZM87.9131 68.6615V54.5478H90.9131V68.6615H87.9131ZM78.0784 87.9131H87.9131V78.8921H90.9131V87.9131V90.9131H87.9131H78.0784V87.9131ZM54.5479 87.9131H68.4523V90.9131H54.5479V87.9131ZM35.087 78.8921V87.9131H44.9218V90.9131H35.087H32.087V87.9131V78.8921H35.087ZM35.087 54.5478V68.6615H32.087V54.5478H35.087Z" fill="#FF0000"/>
<rect x="59.8958" y="32.087" width="3.2087" height="16.0435" fill="#FF0000"/>
<rect x="59.8958" y="74.8696" width="3.2087" height="16.0435" fill="#FF0000"/>
<rect x="74.8695" y="63.1043" width="3.2087" height="16.0435" transform="rotate(-90 74.8695 63.1043)" fill="#FF0000"/>
<rect x="74.8695" y="63.1043" width="3.2087" height="16.0435" transform="rotate(-90 74.8695 63.1043)" fill="#FF0000"/>
<rect x="55.4496" y="57.7185" width="3.20869" height="13.9043" transform="rotate(-45 55.4496 57.7185)" fill="#FF0000"/>
<rect x="65.2815" y="55.4496" width="3.20869" height="13.9043" transform="rotate(45 65.2815 55.4496)" fill="#FF0000"/>
<rect x="34.2263" y="63.1043" width="3.20869" height="13.9044" transform="rotate(-90 34.2263 63.1043)" fill="#FF0000"/>
<rect x="32.0869" y="63.1043" width="3.2087" height="16.0435" transform="rotate(-90 32.0869 63.1043)" fill="#FF0000"/>
</svg>
