<svg width="92" height="92" viewBox="0 0 92 92" fill="none" xmlns="http://www.w3.org/2000/svg">
<path fill-rule="evenodd" clip-rule="evenodd" d="M37.9697 15C34.4049 15 31.5152 17.8715 31.5152 21.4138V34.2414C31.5152 35.8364 32.1011 37.2953 33.0706 38.4174L21.9196 51.3448H16.4545C12.8898 51.3448 10 54.2165 10 57.7586V70.5862C10 74.1283 12.8898 77 16.4545 77H29.3636C32.9284 77 35.8182 74.1283 35.8182 70.5862V57.7586C35.8182 54.2165 32.9284 51.3448 29.3636 51.3448H27.587L36.8853 40.565C37.2382 40.6244 37.6001 40.6552 37.9697 40.6552H50.8788C51.2484 40.6552 51.6103 40.6244 51.9632 40.565L61.2702 51.3551C57.8759 51.5437 55.1818 54.3384 55.1818 57.7586V70.5862C55.1818 74.1283 58.0717 77 61.6364 77H74.5455C78.1101 77 81 74.1283 81 70.5862V57.7586C81 54.2165 78.1101 51.3448 74.5455 51.3448H66.9291L55.7778 38.4174C56.7473 37.2953 57.3333 35.8363 57.3333 34.2414V21.4138C57.3333 17.8715 54.4434 15 50.8788 15H37.9697ZM65.9217 55.6207C65.9342 55.6207 65.9467 55.6207 65.9588 55.6207H74.5455C75.7335 55.6207 76.697 56.5781 76.697 57.7586V70.5862C76.697 71.7668 75.7335 72.7241 74.5455 72.7241H61.6364C60.4483 72.7241 59.4849 71.7668 59.4849 70.5862V57.7586C59.4849 56.5781 60.4483 55.6207 61.6364 55.6207H65.9217ZM16.4545 55.6207H29.3636C30.5519 55.6207 31.5152 56.5781 31.5152 57.7586V70.5862C31.5152 71.7668 30.5519 72.7241 29.3636 72.7241H16.4545C15.2663 72.7241 14.303 71.7668 14.303 70.5862V57.7586C14.303 56.5781 15.2663 55.6207 16.4545 55.6207ZM35.8182 21.4138C35.8182 20.2331 36.7816 19.2759 37.9697 19.2759H50.8788C52.0669 19.2759 53.0303 20.2331 53.0303 21.4138V34.2414C53.0303 35.4221 52.0669 36.3793 50.8788 36.3793H37.9697C36.7816 36.3793 35.8182 35.4221 35.8182 34.2414V21.4138Z" fill="black"/>
</svg>
