<svg width="106" height="436" viewBox="0 0 106 436" fill="none" xmlns="http://www.w3.org/2000/svg">
<rect x="86.0753" y="208.925" width="34.1507" height="66.1507" rx="2.07533" transform="rotate(90 86.0753 208.925)" fill="#FF0000" stroke="#FF0000" stroke-width="3.84934"/>
<rect x="86.0753" y="251.925" width="34.1507" height="66.1507" rx="2.07533" transform="rotate(90 86.0753 251.925)" fill="#FF0000" stroke="#FF0000" stroke-width="3.84934"/>
<rect x="86.0753" y="294.925" width="34.1507" height="66.1507" rx="2.07533" transform="rotate(90 86.0753 294.925)" fill="#FF0000" stroke="#FF0000" stroke-width="3.84934"/>
<rect x="86.0753" y="337.925" width="34.1507" height="66.1507" rx="2.07533" transform="rotate(90 86.0753 337.925)" fill="#FF0000" stroke="#FF0000" stroke-width="3.84934"/>
<rect x="86.0753" y="380.925" width="34.1507" height="66.1507" rx="2.07533" transform="rotate(90 86.0753 380.925)" fill="#FF0000" stroke="#FF0000" stroke-width="3.84934"/>
<path d="M74.5 3V1.5L73 1.5L33 1.5L31.5 1.5V3L31.5 18.5L11 18.5C5.75332 18.5 1.50002 22.7533 1.50002 28L1.5 425C1.5 430.247 5.75329 434.5 11 434.5H95C100.247 434.5 104.5 430.247 104.5 425L104.5 28C104.5 22.7533 100.247 18.5 95 18.5L74.5 18.5V3Z" stroke="#FF0000" stroke-width="3"/>
</svg>
