<svg width="645" height="525" viewBox="0 0 645 525" fill="none" xmlns="http://www.w3.org/2000/svg">
<path d="M100 46L61 85H37M130 46.5H118L97.5 67M36 280.5V128.5L97.5 67M36 280.5H82.5M36 280.5V389.5M225 296V280.5H143.5M143.5 280.5V249.5M143.5 280.5H113M113 280.5V249.5M113 280.5H82.5M82.5 280.5V296M97.5 67H223M378 67H347M378 67H404.5M378 67V33.5H467V46.5M347 67V46.5M347 67H269.5M267.5 67V46.5M267.5 67H269.5M267.5 67H237M269.5 67V85M237 67V46.5M237 67H223M237 67V110H269.5M223 67V133.5M223 67V46.5H207M292 85V110M370.5 85H327V125.5M455.5 180V166.5H501V102M501 102V67H437.5M501 102H488V85H455.5M404.5 67V110H433M404.5 67H437.5M437.5 67V46.5M370 109.5V157H394V180H432.5V149.5H454.5M520 46.5V74.5H537.5M550 74.5V46.5M550 74.5H537.5M550 74.5V99H580V117M537.5 74.5V117M252.5 187.5H270V167.5M270 133.5V167.5M270 167.5H223.5M207.5 157H195.5V121M207.5 109.5H195.5V121M195.5 121H110.5V187.5H131.5M146.5 187.5V202H82.5M82.5 202H59.5M82.5 202V125L98 109.5H122.5M121.5 133H152V167.5H182.5V157M237 187.5V202H284.5V217H300.5M184.5 218.5H205.5V234.5H302.5M302.5 234.5L312.5 224.5V175.5L270.5 133.5M302.5 234.5H376.5V251.5M345.5 221.5H376.5M409 248H397.5V357.5H433M384 388.5H413V373.5H444.5V296H409M448.5 218.5H409M478.5 180V203.5H464M508.5 195H537.5V180H580M601.5 180H611.5V227.5M580 227.5H595.5V241.5H611.5M580 241.5H548V227.5M549.5 203.5H536V257H599M599 257H611.5M599 257V332H558V342.5M611.5 318.5V342.5H558M558 342.5V367M558 342.5H549.5M596.5 388V435.5H526V414L542.5 397.5M542.5 397.5L558 382M542.5 397.5H558M542.5 397.5H533V382M585.5 280V303.5H549V319.5H533V382M471 248V273.5H486V312.5L508 334.5V367M471 296.5L455 312.5V388H432.5M533 382H508M98 296V311.5H59V334M59 347.5V376.5M199 424.5V385H172.5V409.5H116.5V385H75V389.5H59H36M199 424.5H377.5V412M199 424.5H71L36 389.5M355.5 412H335.5V373H315.5M315.5 358.5H335.5V273H315.5M285 296V249M277 335.5V412H215V373H160.5V363.5H116.5V339.5H79L91 327.5H127.5V296M168.5 280.5V311.5H141.5V350.5H184.5M160.5 327.5H184.5M195 296V311.5H219.5V350.5H254V397.5H248.5M315.5 248H348.5V267H375.5M207 187H222M580 404.5V424.5H441.5M441.5 424.5V412M441.5 424.5V435.5L410 467H355.5V481.5M495 481.5V447H549.5V435.5M377.5 435.5H308V481.5M386 481.5V507H446V481.5M200.5 481.5H184.5V397.5M122.5 481.5H96.5V397.5M153 481.5V507H230V481.5" stroke="#FF0000" stroke-width="4"/>
</svg>
