<svg width="645" height="525" viewBox="0 0 645 525" fill="none" xmlns="http://www.w3.org/2000/svg">
<path d="M49 87H44M85 87H90M49 80H85V94H49V80Z" stroke="white" stroke-width="2"/>
<path d="M134 87H129M170 87H175M134 80H170V94H134V80Z" stroke="white" stroke-width="2"/>
<path d="M111 328H106M147 328H152M111 321H147V335H111V321Z" stroke="white" stroke-width="2"/>
<path d="M197 328H192M233 328H238M197 321H233V335H197V321Z" stroke="white" stroke-width="2"/>
<path d="M331 250H326M367 250H372M331 243H367V257H331V243Z" stroke="white" stroke-width="2"/>
<path d="M219 87H214M255 87H260M219 80H255V94H219V80Z" stroke="white" stroke-width="2"/>
<path d="M304 87H299M340 87H345M304 80H340V94H304V80Z" stroke="white" stroke-width="2"/>
<path d="M385 87H380M421 87H426M385 80H421V94H385V80Z" stroke="white" stroke-width="2"/>
<path d="M423 248H418M459 248H464M423 241H459V255H423V241Z" stroke="white" stroke-width="2"/>
<path d="M503 276L503 281M503 240L503 235M496 276L496 240L510 240L510 276L496 276Z" stroke="white" stroke-width="2"/>
<path d="M134 133H129M170 133H175M134 126H170V140H134V126Z" stroke="white" stroke-width="2"/>
<path d="M111 374H106M147 374H152M111 367H147V381H111V367Z" stroke="white" stroke-width="2"/>
<path d="M197 374H192M233 374H238M197 367H233V381H197V367Z" stroke="white" stroke-width="2"/>
<path d="M331 296H326M367 296H372M331 289H367V303H331V289Z" stroke="white" stroke-width="2"/>
<path d="M219 133H214M255 133H260M219 126H255V140H219V126Z" stroke="white" stroke-width="2"/>
<path d="M385 133H380M421 133H426M385 126H421V140H385V126Z" stroke="white" stroke-width="2"/>
<path d="M423 294H418M459 294H464M423 287H459V301H423V287Z" stroke="white" stroke-width="2"/>
<path d="M561 342H556M597 342H602M561 335H597V349H561V335Z" stroke="white" stroke-width="2"/>
<path d="M389 435H384M425 435H430M389 428H425V442H389V428Z" stroke="white" stroke-width="2"/>
<path d="M478 435H473M514 435H519M478 428H514V442H478V428Z" stroke="white" stroke-width="2"/>
<path d="M562 435H557M598 435H603M562 428H598V442H562V428Z" stroke="white" stroke-width="2"/>
<path d="M549 276L549 281M549 240L549 235M542 276L542 240L556 240L556 276L542 276Z" stroke="white" stroke-width="2"/>
<path d="M602 167L602 172M602 131L602 126M595 167L595 131L609 131L609 167L595 167Z" stroke="white" stroke-width="2"/>
<path d="M49 110H44M85 110H90M49 103H85V117H49V103Z" stroke="white" stroke-width="2"/>
<path d="M134 110H129M170 110H175M134 103H170V117H134V103Z" stroke="white" stroke-width="2"/>
<path d="M104 351H99M140 351H145M104 344H140V358H104V344Z" stroke="white" stroke-width="2"/>
<path d="M197 351H192M233 351H238M197 344H233V358H197V344Z" stroke="white" stroke-width="2"/>
<path d="M328 273H323M364 273H369M328 266H364V280H328V266Z" stroke="white" stroke-width="2"/>
<path d="M219 110H214M255 110H260M219 103H255V117H219V103Z" stroke="white" stroke-width="2"/>
<path d="M385 110H380M421 110H426M385 103H421V117H385V103Z" stroke="white" stroke-width="2"/>
<path d="M423 271H418M459 271H464M423 264H459V278H423V264Z" stroke="white" stroke-width="2"/>
<path d="M561 319H556M597 319H602M561 312H597V326H561V312Z" stroke="white" stroke-width="2"/>
<path d="M389 412H384M425 412H430M389 405H425V419H389V405Z" stroke="white" stroke-width="2"/>
<path d="M304 412H299M340 412H345M304 405H340V419H304V405Z" stroke="white" stroke-width="2"/>
<path d="M526 276L526 281M526 240L526 235M519 276L519 240L533 240L533 276L519 276Z" stroke="white" stroke-width="2"/>
<path d="M579 167L579 172M579 131L579 126M572 167L572 131L586 131L586 167L572 167Z" stroke="white" stroke-width="2"/>
<path d="M531 98H526M567 98H572M531 91H567V105H531V91Z" stroke="white" stroke-width="2"/>
<path d="M562 203H557M598 203H603M562 196H598V210H562V196Z" stroke="white" stroke-width="2"/>
<path d="M134 156H129M170 156H175M134 149H170V163H134V149Z" stroke="white" stroke-width="2"/>
<path d="M110 397H105M146 397H151M110 390H146V404H110V390Z" stroke="white" stroke-width="2"/>
<path d="M197 397H192M233 397H238M197 390H233V404H197V390Z" stroke="white" stroke-width="2"/>
<path d="M134 219H129M170 219H175M134 212H170V226H134V212Z" stroke="white" stroke-width="2"/>
<path d="M219 156H214M255 156H260M219 149H255V163H219V149Z" stroke="white" stroke-width="2"/>
<path d="M219 219H214M255 219H260M219 212H255V226H219V212Z" stroke="white" stroke-width="2"/>
<path d="M292 163L292 171.5M292 127L292 117M285 163L285 127L299 127L299 163L285 163Z" stroke="white" stroke-width="2"/>
<path d="M346 204L346 212.5M346 168L346 158M339 204L339 168L353 168L353 204L339 204Z" stroke="white" stroke-width="2"/>
<path d="M478 168L478 176.5M478 132L478 122M471 168L471 132L485 132L485 168L471 168Z" stroke="white" stroke-width="2"/>
<path d="M454 135L454 143.5M454 99L454 89M447 135L447 99L461 99L461 135L447 135Z" stroke="white" stroke-width="2"/>
<path d="M540 358H550V422H516V358H525M540 358V363.5H525V358M540 358H525" stroke="white" stroke-width="2"/>
<path d="M415.294 335H425V397H392V335H400.735M415.294 335V340.328H400.735V335M415.294 335H400.735" stroke="white" stroke-width="2"/>
<path d="M344.882 335H354V397H323V335H331.206M344.882 335V340.328H331.206V335M344.882 335H331.206" stroke="white" stroke-width="2"/>
<path d="M39 265.5L39 258L156 258L156 287L39 287L39 280M39 265.5L44.5 265.5L44.5 272.926L44.5 280L39 280M39 265.5L39 280" stroke="white" stroke-width="2"/>
<path d="M180 265.5L180 258L297 258L297 287L180 287L180 280M180 265.5L185.5 265.5L185.5 272.926L185.5 280L180 280M180 265.5L180 280" stroke="white" stroke-width="2"/>
<circle cx="59" cy="147" r="14" stroke="white" stroke-width="2"/>
<circle cx="59" cy="341" r="14" transform="rotate(-180 59 341)" stroke="white" stroke-width="2"/>
<circle cx="59" cy="195" r="14" transform="rotate(-180 59 195)" stroke="white" stroke-width="2"/>
<circle cx="59" cy="382" r="14" stroke="white" stroke-width="2"/>
<circle cx="300" cy="210" r="14" transform="rotate(-180 300 210)" stroke="white" stroke-width="2"/>
<circle cx="277" cy="329" r="14" transform="rotate(-180 277 329)" stroke="white" stroke-width="2"/>
<circle cx="579" cy="280" r="14" transform="rotate(90 579 280)" stroke="white" stroke-width="2"/>
<circle cx="516" cy="195" r="14" transform="rotate(90 516 195)" stroke="white" stroke-width="2"/>
<circle cx="334" cy="125" r="14" transform="rotate(90 334 125)" stroke="white" stroke-width="2"/>
<rect x="122" y="181" width="139" height="13" stroke="white" stroke-width="2"/>
<rect x="92" y="182" width="13" height="42" stroke="white" stroke-width="2"/>
<rect x="574" y="373" width="13" height="42" transform="rotate(-90 574 373)" stroke="white" stroke-width="2"/>
<rect x="373" y="163" width="13" height="42" transform="rotate(-90 373 163)" stroke="white" stroke-width="2"/>
<rect x="85" y="26" width="59" height="48" stroke="white" stroke-width="2"/>
<rect x="107" y="456" width="59" height="48" stroke="white" stroke-width="2"/>
<rect x="185" y="456" width="59" height="48" stroke="white" stroke-width="2"/>
<rect x="263" y="456" width="59" height="48" stroke="white" stroke-width="2"/>
<rect x="480" y="456" width="59" height="48" stroke="white" stroke-width="2"/>
<rect x="337" y="456" width="123" height="48" stroke="white" stroke-width="2"/>
<rect x="506" y="26" width="59" height="48" stroke="white" stroke-width="2"/>
<rect x="162" y="26" width="122" height="48" stroke="white" stroke-width="2"/>
<rect x="300" y="26" width="184" height="48" stroke="white" stroke-width="2"/>
<rect x="14" y="17" width="59" height="57" stroke="white" stroke-width="2"/>
<rect x="14" y="453" width="59" height="57" stroke="white" stroke-width="2"/>
<rect x="574" y="17" width="59" height="57" stroke="white" stroke-width="2"/>
<rect x="574" y="453" width="59" height="57" stroke="white" stroke-width="2"/>
<path d="M334 319H329M370 319H375M334 312H370V326H334V312Z" stroke="white" stroke-width="2"/>
<rect x="55" y="137" width="8" height="8" fill="white"/>
<circle cx="59" cy="154" r="4" fill="white"/>
<rect x="63" y="351" width="8" height="8" transform="rotate(-180 63 351)" fill="white"/>
<circle cx="59" cy="334" r="4" transform="rotate(-180 59 334)" fill="white"/>
<rect x="63" y="205" width="8" height="8" transform="rotate(-180 63 205)" fill="white"/>
<circle cx="59" cy="188" r="4" transform="rotate(-180 59 188)" fill="white"/>
<ellipse cx="53" cy="249" rx="5" ry="5" transform="rotate(-180 53 249)" fill="white"/>
<ellipse cx="68" cy="249" rx="5" ry="5" transform="rotate(-180 68 249)" fill="white"/>
<ellipse cx="83" cy="249" rx="5" ry="5" transform="rotate(-180 83 249)" fill="white"/>
<ellipse cx="98" cy="249" rx="5" ry="5" transform="rotate(-180 98 249)" fill="white"/>
<ellipse cx="113" cy="249" rx="5" ry="5" transform="rotate(-180 113 249)" fill="white"/>
<ellipse cx="128" cy="249" rx="5" ry="5" transform="rotate(-180 128 249)" fill="white"/>
<ellipse cx="143" cy="249" rx="5" ry="5" transform="rotate(-180 143 249)" fill="white"/>
<ellipse cx="195" cy="249" rx="5" ry="5" transform="rotate(-180 195 249)" fill="white"/>
<ellipse cx="210" cy="249" rx="5" ry="5" transform="rotate(-180 210 249)" fill="white"/>
<ellipse cx="225" cy="249" rx="5" ry="5" transform="rotate(-180 225 249)" fill="white"/>
<ellipse cx="240" cy="249" rx="5" ry="5" transform="rotate(-180 240 249)" fill="white"/>
<ellipse cx="255" cy="249" rx="5" ry="5" transform="rotate(-180 255 249)" fill="white"/>
<ellipse cx="270" cy="249" rx="5" ry="5" transform="rotate(-180 270 249)" fill="white"/>
<ellipse cx="285" cy="249" rx="5" ry="5" transform="rotate(-180 285 249)" fill="white"/>
<ellipse cx="375.5" cy="221.5" rx="5" ry="5" transform="rotate(-90 375.5 221.5)" fill="white"/>
<ellipse cx="448.5" cy="219" rx="5" ry="5" transform="rotate(-90 448.5 219)" fill="white"/>
<ellipse cx="346" cy="221.5" rx="5" ry="5" transform="rotate(-90 346 221.5)" fill="white"/>
<ellipse cx="346" cy="155" rx="5" ry="5" transform="rotate(-90 346 155)" fill="white"/>
<ellipse cx="409" cy="219" rx="5" ry="5" transform="rotate(-90 409 219)" fill="white"/>
<ellipse cx="375.5" cy="236.5" rx="5" ry="5" transform="rotate(-90 375.5 236.5)" fill="white"/>
<ellipse cx="375.5" cy="251.5" rx="5" ry="5" transform="rotate(-90 375.5 251.5)" fill="white"/>
<ellipse cx="375.5" cy="266.5" rx="5" ry="5" transform="rotate(-90 375.5 266.5)" fill="white"/>
<ellipse cx="433" cy="343" rx="5" ry="5" transform="rotate(-90 433 343)" fill="white"/>
<ellipse cx="384" cy="343" rx="5" ry="5" transform="rotate(-90 384 343)" fill="white"/>
<ellipse cx="362" cy="343" rx="5" ry="5" transform="rotate(-90 362 343)" fill="white"/>
<ellipse cx="315" cy="343" rx="5" ry="5" transform="rotate(-90 315 343)" fill="white"/>
<ellipse cx="558" cy="367" rx="5" ry="5" transform="rotate(-90 558 367)" fill="white"/>
<ellipse cx="508" cy="367" rx="5" ry="5" transform="rotate(-90 508 367)" fill="white"/>
<ellipse cx="433" cy="358" rx="5" ry="5" transform="rotate(-90 433 358)" fill="white"/>
<ellipse cx="384" cy="358" rx="5" ry="5" transform="rotate(-90 384 358)" fill="white"/>
<ellipse cx="362" cy="358" rx="5" ry="5" transform="rotate(-90 362 358)" fill="white"/>
<ellipse cx="315" cy="358" rx="5" ry="5" transform="rotate(-90 315 358)" fill="white"/>
<ellipse cx="558" cy="382" rx="5" ry="5" transform="rotate(-90 558 382)" fill="white"/>
<ellipse cx="508" cy="382" rx="5" ry="5" transform="rotate(-90 508 382)" fill="white"/>
<ellipse cx="433" cy="373" rx="5" ry="5" transform="rotate(-90 433 373)" fill="white"/>
<ellipse cx="384" cy="373" rx="5" ry="5" transform="rotate(-90 384 373)" fill="white"/>
<ellipse cx="362" cy="373" rx="5" ry="5" transform="rotate(-90 362 373)" fill="white"/>
<ellipse cx="315" cy="373" rx="5" ry="5" transform="rotate(-90 315 373)" fill="white"/>
<ellipse cx="558" cy="397" rx="5" ry="5" transform="rotate(-90 558 397)" fill="white"/>
<ellipse cx="508" cy="397" rx="5" ry="5" transform="rotate(-90 508 397)" fill="white"/>
<ellipse cx="433" cy="388" rx="5" ry="5" transform="rotate(-90 433 388)" fill="white"/>
<ellipse cx="384" cy="388" rx="5" ry="5" transform="rotate(-90 384 388)" fill="white"/>
<ellipse cx="362" cy="388" rx="5" ry="5" transform="rotate(-90 362 388)" fill="white"/>
<ellipse cx="315" cy="388" rx="5" ry="5" transform="rotate(-90 315 388)" fill="white"/>
<ellipse cx="558" cy="412" rx="5" ry="5" transform="rotate(-90 558 412)" fill="white"/>
<ellipse cx="508" cy="412" rx="5" ry="5" transform="rotate(-90 508 412)" fill="white"/>
<ellipse cx="162" cy="187" rx="5" ry="5" transform="rotate(-180 162 187)" fill="white"/>
<ellipse cx="177" cy="187" rx="5" ry="5" transform="rotate(-180 177 187)" fill="white"/>
<ellipse cx="192" cy="187" rx="5" ry="5" transform="rotate(-180 192 187)" fill="white"/>
<ellipse cx="207" cy="187" rx="5" ry="5" transform="rotate(-180 207 187)" fill="white"/>
<ellipse cx="222" cy="187" rx="5" ry="5" transform="rotate(-180 222 187)" fill="white"/>
<ellipse cx="237" cy="187" rx="5" ry="5" transform="rotate(-180 237 187)" fill="white"/>
<ellipse cx="252" cy="187" rx="5" ry="5" transform="rotate(-180 252 187)" fill="white"/>
<ellipse cx="147" cy="187" rx="5" ry="5" transform="rotate(-180 147 187)" fill="white"/>
<ellipse cx="132" cy="187" rx="5" ry="5" transform="rotate(-180 132 187)" fill="white"/>
<ellipse cx="100" cy="46" rx="5" ry="5" transform="rotate(-180 100 46)" fill="white"/>
<ellipse cx="123" cy="481" rx="5" ry="5" transform="rotate(-180 123 481)" fill="white"/>
<ellipse cx="200" cy="481" rx="5" ry="5" transform="rotate(-180 200 481)" fill="white"/>
<ellipse cx="278" cy="481" rx="5" ry="5" transform="rotate(-180 278 481)" fill="white"/>
<ellipse cx="356" cy="481" rx="5" ry="5" transform="rotate(-180 356 481)" fill="white"/>
<ellipse cx="416" cy="481" rx="5" ry="5" transform="rotate(-180 416 481)" fill="white"/>
<ellipse cx="495" cy="481" rx="5" ry="5" transform="rotate(-180 495 481)" fill="white"/>
<ellipse cx="130" cy="46" rx="5" ry="5" transform="rotate(-180 130 46)" fill="white"/>
<ellipse cx="153" cy="481" rx="5" ry="5" transform="rotate(-180 153 481)" fill="white"/>
<ellipse cx="230" cy="481" rx="5" ry="5" transform="rotate(-180 230 481)" fill="white"/>
<ellipse cx="308" cy="481" rx="5" ry="5" transform="rotate(-180 308 481)" fill="white"/>
<ellipse cx="386" cy="481" rx="5" ry="5" transform="rotate(-180 386 481)" fill="white"/>
<ellipse cx="446" cy="481" rx="5" ry="5" transform="rotate(-180 446 481)" fill="white"/>
<ellipse cx="525" cy="481" rx="5" ry="5" transform="rotate(-180 525 481)" fill="white"/>
<ellipse cx="177" cy="46" rx="5" ry="5" transform="rotate(-180 177 46)" fill="white"/>
<ellipse cx="270" cy="85" rx="5" ry="5" transform="rotate(-90 270 85)" fill="white"/>
<ellipse cx="292" cy="85" rx="5" ry="5" transform="rotate(-90 292 85)" fill="white"/>
<ellipse cx="355" cy="85" rx="5" ry="5" transform="rotate(-90 355 85)" fill="white"/>
<ellipse cx="370" cy="85" rx="5" ry="5" transform="rotate(-90 370 85)" fill="white"/>
<ellipse cx="394" cy="157" rx="5" ry="5" transform="rotate(-90 394 157)" fill="white"/>
<ellipse cx="433" cy="85" rx="5" ry="5" transform="rotate(-90 433 85)" fill="white"/>
<ellipse cx="409" cy="248" rx="5" ry="5" transform="rotate(-90 409 248)" fill="white"/>
<ellipse cx="471" cy="248" rx="5" ry="5" transform="rotate(-90 471 248)" fill="white"/>
<ellipse cx="316" cy="248" rx="5" ry="5" transform="rotate(-90 316 248)" fill="white"/>
<ellipse cx="455" cy="85" rx="5" ry="5" transform="rotate(-90 455 85)" fill="white"/>
<ellipse cx="455" cy="149" rx="5" ry="5" transform="rotate(-90 455 149)" fill="white"/>
<ellipse cx="455" cy="180" rx="5" ry="5" transform="rotate(-90 455 180)" fill="white"/>
<ellipse cx="478" cy="180" rx="5" ry="5" transform="rotate(-90 478 180)" fill="white"/>
<ellipse cx="487" cy="85" rx="5" ry="5" transform="rotate(-90 487 85)" fill="white"/>
<ellipse cx="553" cy="117" rx="5" ry="5" transform="rotate(-90 553 117)" fill="white"/>
<ellipse cx="611" cy="242" rx="5" ry="5" fill="white"/>
<ellipse cx="580" cy="242" rx="5" ry="5" fill="white"/>
<ellipse cx="611" cy="257" rx="5" ry="5" fill="white"/>
<ellipse cx="602" cy="117" rx="5" ry="5" transform="rotate(-90 602 117)" fill="white"/>
<ellipse cx="602" cy="180" rx="5" ry="5" transform="rotate(-90 602 180)" fill="white"/>
<ellipse cx="548" cy="227" rx="5" ry="5" transform="rotate(-90 548 227)" fill="white"/>
<ellipse cx="538" cy="117" rx="5" ry="5" transform="rotate(-90 538 117)" fill="white"/>
<ellipse cx="611" cy="227" rx="5" ry="5" fill="white"/>
<ellipse cx="611" cy="203" rx="5" ry="5" fill="white"/>
<ellipse cx="549" cy="203" rx="5" ry="5" fill="white"/>
<ellipse cx="464" cy="203" rx="5" ry="5" fill="white"/>
<ellipse cx="580" cy="227" rx="5" ry="5" fill="white"/>
<ellipse cx="580" cy="117" rx="5" ry="5" transform="rotate(-90 580 117)" fill="white"/>
<ellipse cx="580" cy="180" rx="5" ry="5" transform="rotate(-90 580 180)" fill="white"/>
<ellipse cx="526" cy="227" rx="5" ry="5" transform="rotate(-90 526 227)" fill="white"/>
<ellipse cx="580" cy="98" rx="5" ry="5" transform="rotate(-90 580 98)" fill="white"/>
<ellipse cx="517" cy="98" rx="5" ry="5" transform="rotate(-90 517 98)" fill="white"/>
<ellipse cx="480" cy="117" rx="5" ry="5" transform="rotate(-90 480 117)" fill="white"/>
<ellipse cx="370" cy="110" rx="5" ry="5" transform="rotate(-90 370 110)" fill="white"/>
<ellipse cx="433" cy="110" rx="5" ry="5" transform="rotate(-90 433 110)" fill="white"/>
<ellipse cx="409" cy="273" rx="5" ry="5" transform="rotate(-90 409 273)" fill="white"/>
<ellipse cx="471" cy="273" rx="5" ry="5" transform="rotate(-90 471 273)" fill="white"/>
<ellipse cx="441" cy="412" rx="5" ry="5" transform="rotate(-90 441 412)" fill="white"/>
<ellipse cx="355" cy="412" rx="5" ry="5" transform="rotate(-90 355 412)" fill="white"/>
<ellipse cx="377" cy="412" rx="5" ry="5" transform="rotate(-90 377 412)" fill="white"/>
<ellipse cx="291" cy="412" rx="5" ry="5" transform="rotate(-90 291 412)" fill="white"/>
<ellipse cx="611" cy="319" rx="5" ry="5" transform="rotate(-90 611 319)" fill="white"/>
<ellipse cx="549" cy="319" rx="5" ry="5" transform="rotate(-90 549 319)" fill="white"/>
<ellipse cx="596.334" cy="388.071" rx="5" ry="5" transform="rotate(-45 596.334 388.071)" fill="white"/>
<ellipse cx="478" cy="388" rx="5" ry="5" fill="white"/>
<ellipse cx="549" cy="435" rx="5" ry="5" fill="white"/>
<ellipse cx="316" cy="273" rx="5" ry="5" transform="rotate(-90 316 273)" fill="white"/>
<ellipse cx="370" cy="133" rx="5" ry="5" transform="rotate(-90 370 133)" fill="white"/>
<ellipse cx="433" cy="133" rx="5" ry="5" transform="rotate(-90 433 133)" fill="white"/>
<ellipse cx="409" cy="296" rx="5" ry="5" transform="rotate(-90 409 296)" fill="white"/>
<ellipse cx="471" cy="296" rx="5" ry="5" transform="rotate(-90 471 296)" fill="white"/>
<ellipse cx="441" cy="435" rx="5" ry="5" transform="rotate(-90 441 435)" fill="white"/>
<ellipse cx="377" cy="435" rx="5" ry="5" transform="rotate(-90 377 435)" fill="white"/>
<ellipse cx="611" cy="342" rx="5" ry="5" transform="rotate(-90 611 342)" fill="white"/>
<ellipse cx="549" cy="342" rx="5" ry="5" transform="rotate(-90 549 342)" fill="white"/>
<ellipse cx="580.071" cy="404.334" rx="5" ry="5" transform="rotate(-45 580.071 404.334)" fill="white"/>
<ellipse cx="455" cy="388" rx="5" ry="5" fill="white"/>
<ellipse cx="526" cy="435" rx="5" ry="5" fill="white"/>
<ellipse cx="316" cy="296" rx="5" ry="5" transform="rotate(-90 316 296)" fill="white"/>
<ellipse cx="207" cy="85" rx="5" ry="5" transform="rotate(-90 207 85)" fill="white"/>
<ellipse cx="182" cy="85" rx="5" ry="5" transform="rotate(-90 182 85)" fill="white"/>
<ellipse cx="122" cy="85" rx="5" ry="5" transform="rotate(-90 122 85)" fill="white"/>
<ellipse cx="98" cy="85" rx="5" ry="5" transform="rotate(-90 98 85)" fill="white"/>
<ellipse cx="91" cy="327" rx="5" ry="5" transform="rotate(-90 91 327)" fill="white"/>
<ellipse cx="184" cy="327" rx="5" ry="5" transform="rotate(-90 184 327)" fill="white"/>
<ellipse cx="248" cy="327" rx="5" ry="5" transform="rotate(-90 248 327)" fill="white"/>
<ellipse cx="184" cy="373" rx="5" ry="5" transform="rotate(-90 184 373)" fill="white"/>
<ellipse cx="254" cy="373" rx="5" ry="5" transform="rotate(-90 254 373)" fill="white"/>
<ellipse cx="161" cy="373" rx="5" ry="5" transform="rotate(-90 161 373)" fill="white"/>
<ellipse cx="97" cy="373" rx="5" ry="5" transform="rotate(-90 97 373)" fill="white"/>
<ellipse cx="161" cy="327" rx="5" ry="5" transform="rotate(-90 161 327)" fill="white"/>
<ellipse cx="98" cy="189" rx="5" ry="5" transform="rotate(-90 98 189)" fill="white"/>
<ellipse cx="37" cy="85" rx="5" ry="5" transform="rotate(-90 37 85)" fill="white"/>
<ellipse cx="207" cy="46" rx="5" ry="5" transform="rotate(-180 207 46)" fill="white"/>
<ellipse cx="270" cy="109" rx="5" ry="5" transform="rotate(-90 270 109)" fill="white"/>
<ellipse cx="292" cy="109" rx="5" ry="5" transform="rotate(-90 292 109)" fill="white"/>
<ellipse cx="207" cy="109" rx="5" ry="5" transform="rotate(-90 207 109)" fill="white"/>
<ellipse cx="182" cy="109" rx="5" ry="5" transform="rotate(-90 182 109)" fill="white"/>
<ellipse cx="122" cy="109" rx="5" ry="5" transform="rotate(-90 122 109)" fill="white"/>
<ellipse cx="98" cy="109" rx="5" ry="5" transform="rotate(-90 98 109)" fill="white"/>
<ellipse cx="91" cy="351" rx="5" ry="5" transform="rotate(-90 91 351)" fill="white"/>
<ellipse cx="184" cy="351" rx="5" ry="5" transform="rotate(-90 184 351)" fill="white"/>
<ellipse cx="254" cy="351" rx="5" ry="5" transform="rotate(-90 254 351)" fill="white"/>
<ellipse cx="184" cy="397" rx="5" ry="5" transform="rotate(-90 184 397)" fill="white"/>
<ellipse cx="248" cy="397" rx="5" ry="5" transform="rotate(-90 248 397)" fill="white"/>
<ellipse cx="161" cy="397" rx="5" ry="5" transform="rotate(-90 161 397)" fill="white"/>
<ellipse cx="97" cy="397" rx="5" ry="5" transform="rotate(-90 97 397)" fill="white"/>
<ellipse cx="161" cy="351" rx="5" ry="5" transform="rotate(-90 161 351)" fill="white"/>
<ellipse cx="98" cy="216" rx="5" ry="5" transform="rotate(-90 98 216)" fill="white"/>
<ellipse cx="122" cy="218" rx="5" ry="5" transform="rotate(-90 122 218)" fill="white"/>
<ellipse cx="185" cy="218" rx="5" ry="5" transform="rotate(-90 185 218)" fill="white"/>
<ellipse cx="206" cy="218" rx="5" ry="5" transform="rotate(-90 206 218)" fill="white"/>
<ellipse cx="37" cy="109" rx="5" ry="5" transform="rotate(-90 37 109)" fill="white"/>
<ellipse cx="237" cy="46" rx="5" ry="5" transform="rotate(-180 237 46)" fill="white"/>
<ellipse cx="270" cy="133" rx="5" ry="5" transform="rotate(-90 270 133)" fill="white"/>
<ellipse cx="207" cy="133" rx="5" ry="5" transform="rotate(-90 207 133)" fill="white"/>
<ellipse cx="182" cy="133" rx="5" ry="5" transform="rotate(-90 182 133)" fill="white"/>
<ellipse cx="122" cy="133" rx="5" ry="5" transform="rotate(-90 122 133)" fill="white"/>
<ellipse cx="267" cy="46" rx="5" ry="5" transform="rotate(-180 267 46)" fill="white"/>
<ellipse cx="270" cy="157" rx="5" ry="5" transform="rotate(-90 270 157)" fill="white"/>
<ellipse cx="207" cy="157" rx="5" ry="5" transform="rotate(-90 207 157)" fill="white"/>
<ellipse cx="182" cy="157" rx="5" ry="5" transform="rotate(-90 182 157)" fill="white"/>
<ellipse cx="122" cy="157" rx="5" ry="5" transform="rotate(-90 122 157)" fill="white"/>
<ellipse cx="317" cy="46" rx="5" ry="5" transform="rotate(-180 317 46)" fill="white"/>
<ellipse cx="377" cy="46" rx="5" ry="5" transform="rotate(-180 377 46)" fill="white"/>
<ellipse cx="437" cy="46" rx="5" ry="5" transform="rotate(-180 437 46)" fill="white"/>
<ellipse cx="520" cy="46" rx="5" ry="5" transform="rotate(-180 520 46)" fill="white"/>
<ellipse cx="347" cy="46" rx="5" ry="5" transform="rotate(-180 347 46)" fill="white"/>
<ellipse cx="407" cy="46" rx="5" ry="5" transform="rotate(-180 407 46)" fill="white"/>
<ellipse cx="467" cy="46" rx="5" ry="5" transform="rotate(-180 467 46)" fill="white"/>
<ellipse cx="550" cy="46" rx="5" ry="5" transform="rotate(-180 550 46)" fill="white"/>
<ellipse cx="53" cy="296" rx="5" ry="5" transform="rotate(-180 53 296)" fill="white"/>
<ellipse cx="68" cy="296" rx="5" ry="5" transform="rotate(-180 68 296)" fill="white"/>
<ellipse cx="83" cy="296" rx="5" ry="5" transform="rotate(-180 83 296)" fill="white"/>
<ellipse cx="98" cy="296" rx="5" ry="5" transform="rotate(-180 98 296)" fill="white"/>
<ellipse cx="113" cy="296" rx="5" ry="5" transform="rotate(-180 113 296)" fill="white"/>
<ellipse cx="128" cy="296" rx="5" ry="5" transform="rotate(-180 128 296)" fill="white"/>
<ellipse cx="143" cy="296" rx="5" ry="5" transform="rotate(-180 143 296)" fill="white"/>
<ellipse cx="195" cy="296" rx="5" ry="5" transform="rotate(-180 195 296)" fill="white"/>
<ellipse cx="210" cy="296" rx="5" ry="5" transform="rotate(-180 210 296)" fill="white"/>
<ellipse cx="225" cy="296" rx="5" ry="5" transform="rotate(-180 225 296)" fill="white"/>
<ellipse cx="240" cy="296" rx="5" ry="5" transform="rotate(-180 240 296)" fill="white"/>
<ellipse cx="255" cy="296" rx="5" ry="5" transform="rotate(-180 255 296)" fill="white"/>
<ellipse cx="270" cy="296" rx="5" ry="5" transform="rotate(-180 270 296)" fill="white"/>
<ellipse cx="285" cy="296" rx="5" ry="5" transform="rotate(-180 285 296)" fill="white"/>
<rect x="55" y="372" width="8" height="8" fill="white"/>
<circle cx="59" cy="389" r="4" fill="white"/>
<rect x="304" y="220" width="8" height="8" transform="rotate(-180 304 220)" fill="white"/>
<circle cx="300" cy="203" r="4" transform="rotate(-180 300 203)" fill="white"/>
<rect x="281" y="339" width="8" height="8" transform="rotate(-180 281 339)" fill="white"/>
<circle cx="277" cy="322" r="4" transform="rotate(-180 277 322)" fill="white"/>
<rect x="589" y="276" width="8" height="8" transform="rotate(90 589 276)" fill="white"/>
<circle cx="572" cy="280" r="4" transform="rotate(90 572 280)" fill="white"/>
<rect x="526" y="191" width="8" height="8" transform="rotate(90 526 191)" fill="white"/>
<circle cx="509" cy="195" r="4" transform="rotate(90 509 195)" fill="white"/>
<rect x="344" y="121" width="8" height="8" transform="rotate(90 344 121)" fill="white"/>
<circle cx="327" cy="125" r="4" transform="rotate(90 327 125)" fill="white"/>
<circle cx="44" cy="46" r="15" fill="white"/>
<circle cx="44" cy="482" r="15" fill="white"/>
<circle cx="604" cy="46" r="15" fill="white"/>
<circle cx="604" cy="482" r="15" fill="white"/>
</svg>
